<svg width="147" height="328" viewBox="0 0 147 328" fill="none" xmlns="http://www.w3.org/2000/svg">
<g clip-path="url(#clip0_0_229)">
<path d="M17.1611 208.528C16.957 208.27 16.8497 207.948 16.9463 207.573C16.957 207.551 16.9678 207.53 16.9678 207.508C16.8819 206.725 16.9141 205.931 17.1289 205.136C17.4296 203.977 18.0203 202.861 18.482 201.766C19.6848 198.89 20.8662 196.002 22.0797 193.137C24.1309 188.264 26.311 183.455 28.5233 178.658C29.8979 175.685 31.2296 172.648 32.7438 169.729C31.7558 169.75 30.7786 169.771 29.7905 169.782C25.9351 173.27 21.7253 177.113 18.4498 180.032C15.5932 182.565 12.6828 185.184 10.9537 188.586C9.78322 190.894 9.21403 193.448 8.73073 195.992C7.78568 201.036 7.17354 206.145 6.8621 211.265C8.20448 211.265 9.55767 211.265 10.9001 211.265C11.4263 211.265 11.8129 211.619 11.9848 212.091C12.2425 212.789 12.4572 213.508 12.6506 214.227C12.9942 215.504 13.2627 216.814 13.3916 218.134C13.5097 219.411 13.4883 220.785 12.8869 221.944C12.1029 223.458 10.1913 223.822 8.64483 223.994C7.95754 224.069 7.14132 224.069 6.43253 223.865C7.19502 226.323 10.492 227.622 13.2627 227.085C18.235 226.119 17.4296 224.917 21.736 215.311C21.8542 215.053 21.9616 214.764 22.0797 214.463C21.0487 213.895 20.1037 213.186 19.3197 212.36C18.2995 211.265 17.5262 209.945 17.1611 208.528Z" fill="black"/>
<path d="M9.63318 167.185C17.1829 167.539 24.7004 167.646 32.2501 167.399C32.9805 167.378 33.7107 167.378 34.4409 167.357C34.5162 167.346 34.5806 167.335 34.6558 167.346C34.6772 167.346 34.688 167.335 34.6987 167.335C34.892 167.335 35.0854 167.335 35.2786 167.346C46.6623 167.067 58.0567 167.27 69.4297 167.646C70.4499 165.275 71.4486 162.892 72.458 160.509C75.7122 152.846 79.2669 145.279 83.2618 137.97C84.8514 135.051 86.3013 132.078 89.2975 130.371C92.3153 128.664 95.9881 128.493 99.274 129.523C102.378 130.499 105.266 132.485 107.017 135.255C109.057 138.474 108.382 141.769 107.683 145.3C106.298 152.32 104.397 159.286 102.41 166.186C103.592 166.562 104.891 166.637 106.115 166.745C108.338 166.948 110.561 167.077 112.784 167.174C120.334 167.528 127.852 167.636 135.401 167.389C136.464 167.357 137.539 167.346 138.602 167.324C138.687 167.228 138.774 167.131 138.87 167.045C143.209 163.203 145.518 158.04 146.71 152.524V119.263C146.269 115.248 145.765 111.245 145.303 107.241C144.004 96.0903 143.724 85.0998 144.927 73.9047C145.356 69.9124 146.001 65.9627 146.71 62.0237V0.0625H44.1171C37.8776 0.513283 31.6487 1.06066 25.4092 1.52218C25.2159 1.61878 25.0226 1.69391 24.8078 1.7583C17.9561 3.6473 10.4601 2.16615 3.90911 4.14101C1.81495 7.94046 0.63362 12.2981 0 16.7092V166.391C0.96654 166.595 1.98677 166.659 2.95331 166.755C5.17635 166.959 7.4101 167.077 9.63318 167.185ZM100.552 86.4733C100.585 86.4841 100.853 86.559 100.885 86.559C101.057 86.6239 101.24 86.688 101.4 86.7629C101.411 86.7629 101.691 86.9134 101.723 86.9242C101.873 87.0099 102.013 87.1065 102.152 87.203C102.926 87.7396 103.592 88.2654 104.107 88.9525C104.354 89.2744 104.526 89.6072 104.676 89.994C104.708 90.0689 104.719 90.1013 104.73 90.1114C104.73 90.133 104.74 90.1762 104.762 90.2511C104.805 90.4442 104.848 90.6379 104.891 90.8309C105.031 91.4641 105.17 92.1188 105.364 92.7303C105.353 93.1596 105.331 93.5788 105.288 93.9972C105.117 95.3492 104.762 96.6053 104.258 97.7966C104.837 97.6677 105.417 97.6036 105.997 97.5928C106.255 97.7642 106.545 97.8931 106.856 97.968C107.995 98.2367 109.208 99.0412 110.164 99.7932C110.744 100.243 111.453 100.877 111.946 101.467C112.344 102.755 112.183 104.172 111.646 105.439C111.431 105.728 111.206 106.007 110.958 106.276C110.647 106.63 110.443 106.812 109.992 107.22C109.552 107.617 109.09 107.982 108.617 108.347C108.188 108.669 107.747 108.98 107.296 109.281C107.103 109.409 106.899 109.538 106.695 109.667C106.599 109.731 106.233 109.946 106.179 109.989C103.763 111.395 101.164 112.125 98.4792 112.854C96.6107 113.359 94.7855 114.047 92.8629 114.325C90.962 114.604 89.1043 114.325 87.2784 115.023C87.2459 115.033 87.2142 115.055 87.1818 115.066C86.9671 115.066 86.7632 115.076 86.5484 115.066C85.8286 115.602 84.4969 115.184 84.6367 114.036C85.002 111.062 85.6571 108.132 86.5801 105.288C86.8489 104.73 87.1177 104.182 87.3857 103.635C88.4061 101.532 89.1793 99.3531 90.1348 97.2276C91.2308 94.7909 93.1209 92.8484 94.7206 90.7452C94.9678 90.4233 95.0751 90.0905 95.1076 89.7685C95.2466 89.5964 95.3864 89.4466 95.537 89.2744C95.8051 89.1455 96.0631 88.9525 96.2778 88.6521C96.4284 88.4375 96.5999 88.2445 96.7613 88.0406C97.1584 87.6971 97.5777 87.3751 98.018 87.1172C98.8121 86.6556 99.6718 86.4517 100.509 86.4625C100.531 86.4733 100.542 86.4733 100.552 86.4733ZM44.9655 35.3631C45.3092 34.7298 45.5347 33.9785 45.5132 33.077C45.5025 32.4437 45.5454 31.8105 45.5776 31.1773C45.8569 29.9215 46.2005 28.698 46.6945 27.5388C47.5752 25.4673 48.9498 23.8359 50.6144 22.6553C50.6466 22.6446 50.6681 22.6231 50.7003 22.6017C50.7862 22.5802 51.4091 22.3226 51.4736 22.3011C51.9031 22.1616 52.3434 22.0435 52.7837 21.9469C52.8159 21.9362 53.5677 21.8182 53.6536 21.7967C54.0617 21.7538 54.4805 21.7323 54.8994 21.7216C57.1976 21.6572 59.2488 21.7216 61.2678 22.3011C62.2236 22.5802 63.0291 22.9665 63.8882 23.4925C64.06 23.5998 64.1244 23.632 64.1674 23.6535C64.2104 23.6964 64.2856 23.7608 64.4251 23.8788C64.8011 24.1901 65.1662 24.5121 65.5206 24.8341C66.7126 25.8859 67.9262 26.9377 69.2041 27.8607C69.8055 28.698 70.3747 29.5566 70.8795 30.4367C72.5121 33.3131 73.6398 36.2968 74.3806 39.3557C75.3152 38.2717 76.3564 37.295 77.4733 36.4364C78.2141 36.3934 78.9664 36.2217 79.6855 35.9212C82.2955 34.7942 85.8394 34.6225 88.7923 34.6869C90.5859 34.7298 92.8737 34.9445 94.699 35.3631C97.3414 37.3164 99.0917 40.2895 99.8757 43.5523C99.8649 44.4324 99.8325 45.3018 99.7575 46.1819C99.6501 47.3195 99.5212 47.9957 99.2315 49.4232C98.9411 50.8293 98.5765 52.2246 98.1787 53.609C97.8134 54.8648 97.4055 56.1098 96.9652 57.3441C96.7721 57.8915 96.5682 58.4389 96.3635 58.9755C96.267 59.2331 95.8808 60.1884 95.8159 60.3493C93.1418 66.5959 89.1252 71.8013 84.948 77.1034C82.0375 80.8063 79.46 84.7879 76.1201 88.1263C72.8234 91.4208 68.7853 93.5571 66.2293 97.5928C66.1864 97.6677 66.1542 97.7426 66.1112 97.8182C65.6924 98.1186 65.3058 98.4513 64.887 98.7409C64.2748 100.834 61.053 101.95 59.6677 99.5029C56.07 93.1704 53.0952 86.4949 50.7647 79.6042C50.4748 78.1341 50.2063 76.6633 49.9378 75.2142C48.8854 69.6333 47.2208 64.2454 46.0073 58.7072C44.6219 52.3641 45.4917 45.8384 45.5347 39.4094C45.5454 38.422 45.2769 37.6063 44.8689 36.9516C44.8689 36.4149 44.9118 35.889 44.9655 35.3631Z" fill="black"/>
<path d="M40.2833 201.702C39.4027 200.447 38.8335 198.976 38.8335 197.431C38.8335 196.25 39.2094 195.209 39.6497 194.146C40.7773 191.442 41.905 188.736 43.0326 186.032C45.32 180.537 47.6612 175.106 50.228 169.783C45.9214 169.729 41.615 169.675 37.3085 169.621C36.6535 169.632 35.9984 169.654 35.3433 169.665C33.3672 173.26 31.7349 177.07 30.0273 180.784C28.0942 184.991 26.2041 189.209 24.3999 193.47C26.086 193.921 27.7721 194.383 29.4581 194.833C30.0488 194.994 30.4031 195.638 30.2421 196.218C30.0273 196.991 29.791 197.753 29.5333 198.515C28.5989 201.348 27.5787 204.396 25.8497 206.854C24.9476 208.142 23.981 208.904 22.4131 209.193C21.6184 209.344 20.7485 209.43 19.8894 209.387C20.9418 211.233 23.0038 212.607 24.9261 213.218C26.5693 213.734 28.3735 213.863 29.9736 213.143C31.563 212.435 32.798 211.072 33.9042 209.773C36.1272 207.154 38.157 204.396 40.2833 201.702Z" fill="black"/>
<path d="M52.7621 169.536C51.527 172.004 50.3242 174.505 49.2074 177.027C47.6931 180.43 46.34 183.896 44.9117 187.33C46.4581 187.803 48.0153 188.275 49.5618 188.758C50.2061 188.952 50.4424 189.531 50.3457 190.143C50.2598 190.755 50.131 191.366 49.9913 191.978C49.4437 194.425 48.6597 197.044 47.1347 199.073C46.3507 200.125 45.3412 201.069 44.031 201.391C43.6981 201.466 43.376 201.498 43.0537 201.509C43.7411 202.207 44.5787 202.797 45.4916 203.248C51.5056 197.344 56.9933 190.969 61.4502 183.671C64.1672 179.228 66.3902 174.591 68.4629 169.879C63.2222 169.697 57.9922 169.589 52.7621 169.536Z" fill="black"/>
<path d="M110.754 169.332C107.886 169.17 104.547 169.267 101.787 168.355C101.239 170.244 100.691 172.133 100.144 174.022C98.7797 178.733 97.1367 183.36 95.3108 187.91C94.4734 190.003 93.6037 192.086 92.7231 194.157C91.6703 196.658 89.8343 198.954 88.3412 201.219C81.5756 211.501 75.54 222.224 69.6441 233.02C68.946 234.298 67.0022 233.16 67.7003 231.883C67.8614 231.583 68.0332 231.282 68.1943 230.981C70.9865 225.894 73.8113 220.828 76.7102 215.805C80.7592 208.764 85.2052 202.035 89.5763 195.198C90.8755 193.17 91.692 190.873 92.5941 188.651C93.4423 186.579 94.2587 184.497 95.0319 182.394C96.7181 177.778 98.0605 173.088 99.3597 168.355C100.616 163.783 101.937 159.232 103.151 154.649C104.343 150.141 105.61 145.526 106.169 140.889C106.963 134.32 98.3934 130.038 92.8305 131.369C91.1335 131.777 89.4041 132.678 88.2447 134.009C87.3209 135.072 86.6659 136.478 85.9784 137.701C84.0991 141.04 82.3704 144.452 80.6951 147.887C77.1188 155.217 74.1118 162.731 70.8684 170.201C67.6466 177.628 63.7911 184.776 59.0229 191.324C49.9159 203.795 37.7806 213.465 25.9458 223.2C25.6774 223.426 25.3767 223.49 25.0974 223.468C16.3878 232.109 12.0706 238.956 10.6745 248.884C7.83934 269.083 7.60306 271.756 7.42053 327.062L68.1943 317.649C67.1418 266.668 69.0857 278.839 84.765 266.11C90.0274 261.839 121.075 241.714 124.554 235.897C129.494 227.633 129.441 226.184 129.204 216.567L125.177 169.814C124.737 169.814 124.286 169.814 123.845 169.804C119.474 169.707 115.115 169.578 110.754 169.332ZM71.0939 186.687C71.3731 186.172 72.146 185.957 72.6403 186.279C73.3703 186.751 74.1334 187.17 74.9174 187.545C75.0781 187.621 75.2287 187.685 75.3894 187.76C75.4002 187.771 75.4218 187.771 75.4326 187.781C75.5184 187.814 75.6149 187.856 75.7014 187.889C76.0343 188.018 76.3672 188.125 76.7102 188.211C76.8608 188.254 77.0114 188.286 77.1721 188.307C77.1829 188.307 77.1829 188.307 77.1937 188.307C77.2795 188.307 77.3551 188.318 77.4409 188.329C77.505 188.329 77.7414 188.296 77.817 188.307C77.8812 188.296 77.9453 188.275 78.021 188.254C78.6219 188.05 79.2344 188.49 79.4059 189.037C79.5998 189.638 79.1804 190.229 78.6219 190.422C77.108 190.937 75.3469 190.207 73.972 189.585C73.1238 189.198 72.2858 188.747 71.502 188.232C70.965 187.878 70.7932 187.256 71.0939 186.687ZM98.5116 134.32L100.058 134.847C100.659 135.051 101.186 135.404 101.776 135.802C103.097 136.682 103.827 138.088 103.892 139.859C103.924 140.878 103.72 141.877 103.527 142.832L103.451 143.208C103.355 143.69 103.194 144.152 103.022 144.635L102.496 146.245C102.205 146.932 100.735 151.901 99.9931 153.2C99.7359 153.662 99.2416 154.509 98.0713 154.123C97.9532 154.08 97.8134 154.026 97.6519 153.962C93.6462 152.191 89.737 150.42 86.0217 148.231C84.8831 147.565 84.69 146.942 85.2485 145.719C85.9251 144.238 86.6983 142.553 87.4282 140.868C88.3304 138.796 89.5763 137.036 91.1335 135.609C92.7548 134.127 94.3445 133.505 95.9874 133.709C96.9004 133.816 97.7809 134.074 98.5116 134.32ZM69.1394 192.117C69.3756 192.354 69.6441 192.568 69.9018 192.783C69.934 192.804 69.9555 192.826 69.9878 192.848C69.9878 192.848 70.1166 192.944 70.1488 192.965C70.3099 193.083 70.4817 193.201 70.6429 193.319C71.0187 193.577 71.3946 193.814 71.792 194.028C73.6715 195.08 75.8621 195.713 78.0851 195.273C78.6868 195.155 79.2986 195.434 79.4708 196.056C79.6207 196.615 79.2769 197.323 78.6868 197.441C74.7027 198.224 70.3958 196.518 67.5499 193.706C66.5082 192.686 68.1083 191.087 69.1394 192.117Z" fill="black"/>
<path d="M90.178 140.514C89.7701 141.383 89.3515 142.242 88.868 143.229L88.1164 144.774C87.8476 145.322 87.5904 145.869 87.3432 146.417C89.3191 147.673 95.4296 150.753 98.3833 151.976L99.4786 148.639C99.8649 147.458 100.241 146.288 100.606 145.107L100.939 144.045C101.305 142.907 101.669 141.726 101.916 140.557C102.185 139.269 101.82 138.228 100.874 137.552C100.155 137.036 99.3713 136.65 98.4583 136.349C97.9748 136.188 97.4487 136.059 96.9011 135.952C95.2798 135.652 93.9906 135.973 92.8521 136.983C91.6927 137.97 90.8013 139.161 90.178 140.514Z" fill="black"/>
<path d="M19.5991 207.09C20.1253 207.154 20.673 207.144 21.1992 207.101C21.4784 207.079 21.7577 207.025 22.0369 206.972C22.241 206.929 22.445 206.865 22.6598 206.822C22.649 206.822 22.7349 206.8 22.7887 206.779C22.8531 206.747 22.9712 206.683 23.0034 206.661C23.0356 206.639 23.0571 206.629 23.0894 206.607C23.0894 206.607 23.0894 206.607 23.1001 206.596C23.2719 206.446 23.433 206.274 23.5941 206.103C23.7874 205.888 23.8196 205.823 24.0344 205.512C24.217 205.244 24.3781 204.976 24.5391 204.697C25.2265 203.495 25.7849 202.218 26.2897 200.929C26.8266 199.545 27.2991 198.128 27.7395 196.7C26.0104 196.239 24.2814 195.767 22.5631 195.305C22.5309 195.295 22.5202 195.284 22.488 195.273L18.4285 206.811C18.7829 206.951 19.2125 207.047 19.5991 207.09Z" fill="black"/>
<path d="M6.8305 221.58C6.81982 221.58 6.79843 221.569 6.79843 221.58C6.79843 221.58 6.8305 221.59 6.87328 221.601C6.87328 221.601 6.87327 221.601 6.86258 221.601C6.85189 221.59 6.8412 221.59 6.8305 221.58Z" fill="black"/>
<path d="M6.89449 221.612C6.88382 221.612 6.87315 221.612 6.86249 221.601C6.99051 221.676 6.94783 221.643 6.89449 221.612Z" fill="black"/>
<path d="M6.8306 221.579C6.85209 221.579 6.87356 221.59 6.89504 221.601C7.04539 221.644 7.3139 221.719 7.33537 221.73C7.39979 221.74 7.64681 221.761 7.35684 221.74C7.42126 221.74 7.47495 221.751 7.53937 221.761C7.71123 221.772 7.88309 221.783 8.05488 221.772C8.5167 221.761 8.78519 221.719 9.23621 221.622C9.48323 221.568 9.73024 221.504 9.97719 221.429C10.1276 221.386 10.2779 221.332 10.4283 221.279C10.4605 221.268 10.5464 221.225 10.5893 221.214C10.6323 221.193 10.6646 221.171 10.7075 221.15C10.729 221.128 10.7505 221.107 10.7719 221.096C10.8149 221.053 10.8256 221.053 10.8363 221.042C10.8471 221.032 10.8363 221.021 10.8578 220.989C10.9008 220.914 10.9438 220.828 10.9975 220.742C11.0082 220.699 11.0297 220.656 11.0404 220.602C11.0726 220.484 11.1048 220.366 11.137 220.248C11.1478 220.206 11.1693 220.033 11.1907 219.969C11.1907 219.894 11.2123 219.722 11.2123 219.669C11.223 219.411 11.2338 219.164 11.223 218.907C11.2123 218.585 11.1907 218.273 11.1585 217.962C11.1478 217.898 11.1478 217.823 11.137 217.758C11.137 217.747 11.1263 217.683 11.1263 217.651C11.1156 217.608 11.0834 217.361 11.0726 217.296C10.8578 216.009 10.5142 214.742 10.1168 213.497C9.0214 213.497 7.92604 213.497 6.8306 213.497C6.80912 213.497 6.79839 213.486 6.77691 213.486L6.39029 221.418C6.49769 221.439 6.66952 221.483 6.8306 221.579Z" fill="black"/>
<path d="M6.86209 221.601C6.87275 221.611 6.88341 221.611 6.89408 221.611C6.87275 221.601 6.85143 221.59 6.83011 221.59C6.84077 221.59 6.85143 221.59 6.86209 221.601Z" fill="black"/>
<path d="M43.1077 189.134L40.6161 198.332C40.7128 198.353 40.8094 198.375 40.8953 198.439C41.0779 198.568 41.2712 198.686 41.4752 198.804C41.5397 198.837 41.8296 198.987 41.8834 199.019C42.1518 199.126 42.4418 199.201 42.7317 199.255C42.7962 199.255 42.9251 199.266 42.9788 199.266C43.0754 199.266 43.4084 199.212 43.3117 199.244C43.4084 199.223 43.4943 199.212 43.5909 199.18C43.6661 199.159 43.7413 199.126 43.8057 199.105C44.0098 198.987 44.203 198.879 44.3964 198.74C44.4501 198.697 44.5574 198.6 44.6004 198.579C44.6971 198.482 44.7937 198.397 44.8903 198.289C44.987 198.193 45.0729 198.085 45.1696 197.978C45.2126 197.924 45.2341 197.903 45.2448 197.892C45.2555 197.882 45.2663 197.86 45.3092 197.795C45.481 197.549 45.6421 197.302 45.7924 197.044C45.9428 196.776 46.0931 196.507 46.2328 196.239C46.2972 196.1 46.3724 195.96 46.4369 195.82C46.4583 195.767 46.5335 195.596 46.5657 195.531C46.5872 195.477 46.6516 195.327 46.6516 195.305C46.6731 195.252 46.6945 195.187 46.716 195.134C46.7698 194.983 46.8235 194.844 46.8771 194.694C46.9738 194.436 47.0597 194.168 47.1456 193.91C47.4893 192.837 47.7578 191.731 47.9726 190.626C46.3402 190.122 44.7185 189.627 43.1077 189.134Z" fill="black"/>
</g>
<defs>
<clipPath id="clip0_0_229">
<rect width="147" height="327" fill="white" transform="translate(0 0.0625)"/>
</clipPath>
</defs>
</svg>
